<svg id="Layer_1"
 data-name="Layer 1" xmlns="http://www.w3.org/2000/svg"
  xmlns:xlink="http://www.w3.org/1999/xlink"
   viewBox="0 0 193.77 386.61">
   <defs>
   <style>.cls-1,.cls-4{fill:lime;}.cls-2{fill:none;}.cls-3{fill:#f7931e;}.cls-4{stroke:#000100;stroke-miterlimit:10;}.cls-5{fill:url(#linear-gradient);}.cls-6{fill:url(#linear-gradient-2);}</style>
   <linearGradient id="linear-gradient" x1="317.47" y1="455.88" x2="410.73" y2="455.88" gradientUnits="userSpaceOnUse">
        <stop offset="0" stop-color="red"/>
        <stop offset="0.57" stop-color="#f7931e"/>
        <stop offset="1" stop-color="#f7931e"/>
   </linearGradient>
   <linearGradient id="linear-gradient-2" x1="415.03" y1="376.44" x2="452.34" y2="376.44" gradientUnits="userSpaceOnUse">
        <stop offset="0"/>
        <stop offset="0"
        stop-color="#f7931e"/>
        <stop offset="0.26" stop-color="#f7901d"/>
        <stop offset="0.42" stop-color="#f8881c"/>
        <stop offset="0.56" stop-color="#f87919"/>
        <stop offset="0.68" stop-color="#fa6515"/>
        <stop offset="0.79" stop-color="#fb4a0f"/><stop offset="0.9" stop-color="#fd2908"/>
        <stop offset="0.99" stop-color="#ff0301"/>
        <stop offset="1" stop-color="red"/>
    </linearGradient>
    </defs>
    <title>Illustrator</title>
    <path class="cls-1" d="M499,407.75" transform="translate(-294.02 -125.18)"/>
    <path class="cls-2" d="M339,390.52c-1.15,2-2.93,5.28-5,9.44A53.89,53.89,0,0,1,339,390.52Z" transform="translate(-294.02 -125.18)"/>
    <path class="cls-3" d="M487.79,128.16V419.65c0,1.87-.07,3.72-.19,5.56a2.91,2.91,0,0,1,0,.31l-2.28,14.82a1.65,1.65,0,0,1-.06.32c-8.53,34.68-37.71,61.87-74.49,69.18L391,475.7c21.2,0,39.89-10.12,50.75-25.36a52.62,52.62,0,0,0,10-30.69c0-1.16-.06-2.33-.13-3.5l.77.08s0,0-.49-57.5c-.05-5.26-.1-11-.15-17.26V168.88c0-22.86,14.39-41.63,32.75-43.68a3.08,3.08,0,0,1,2.48.8,2.87,2.87,0,0,1,.29.31A3,3,0,0,1,487.79,128.16Z" transform="translate(-294.02 -125.18)"/>
    <path class="cls-4" d="M371,509.84a99,99,0,0,1-24.72-8.4c.46.17.9.35,1.37.51C356.53,505,364.26,507.62,371,509.84Z" transform="translate(-294.02 -125.18)"/>
    <path class="cls-3" d="M433.09,336.64,427.16,347,415,368.17a65.32,65.32,0,0,0-24.13-4.56,64.49,64.49,0,0,0-29.47,7.05,59.63,59.63,0,0,0-20.94,17.71l-.12-.21s-.51.83-1.38,2.36a53.89,53.89,0,0,0-5,9.44c-10.54,21.24-28.25,66-5.39,90.21C307.48,473.25,294,447.92,294,419.65c0-50.81,43.46-92.14,96.88-92.14A101.18,101.18,0,0,1,433.09,336.64Z" transform="translate(-294.02 -125.18)"/>
    <path class="cls-4" d="M346.32,501.44a45.86,45.86,0,0,1-17.71-11.27A97.79,97.79,0,0,0,346.32,501.44Z" transform="translate(-294.02 -125.18)"/>
    <path class="cls-4" d="M340.49,388.37c-.52.7-1,1.42-1.5,2.15.87-1.53,1.38-2.36,1.38-2.36Z" transform="translate(-294.02 -125.18)"/>
    <path class="cls-5" d="M410.73,509.84a102,102,0,0,1-39.69,0c-6.78-2.22-14.51-4.83-23.35-7.89-.47-.16-.91-.34-1.37-.51a97.79,97.79,0,0,1-17.71-11.27c-22.86-24.25-5.15-69,5.39-90.21a51.82,51.82,0,0,0-3.89,19.69c0,30.9,27.27,56.05,60.79,56.05H391Z" transform="translate(-294.02 -125.18)"/>
    <path class="cls-2" d="M451.7,419.65a52.62,52.62,0,0,1-10,30.69c-10.86,15.24-29.55,25.33-50.75,25.36h-.09c-33.52,0-60.79-25.15-60.79-56.05A51.82,51.82,0,0,1,334,400c2.06-4.16,3.84-7.41,5-9.44.49-.73,1-1.45,1.5-2.15a59.63,59.63,0,0,1,20.94-17.71,64.49,64.49,0,0,1,29.47-7.05A65.32,65.32,0,0,1,415,368.17c19.71,7.8,34.08,24.92,36.35,45.79.09.72.14,1.45.19,2.19C451.64,417.32,451.7,418.49,451.7,419.65Z" transform="translate(-294.02 -125.18)"/>
    <path class="cls-6" d="M452.34,416.23l-.77-.08c-.05-.74-.1-1.47-.19-2.19-2.27-20.87-16.64-38-36.35-45.79L427.16,347l5.93-10.35a97.69,97.69,0,0,1,13.56,7.54,3.25,3.25,0,0,0,5.05-2.71c.05,6.27.1,12,.15,17.26C452.34,416.21,452.34,416.23,452.34,416.23Z" transform="translate(-294.02 -125.18)"/></svg>